<svg width="20" height="20" viewBox="0 0 20 20" fill="none" xmlns="http://www.w3.org/2000/svg">
    <path
        d="M14.6333 17.5C14.5 17.5005 14.3686 17.4691 14.25 17.4083L9.99998 15.1833L5.74999 17.4083C5.61198 17.4809 5.45638 17.5133 5.30088 17.5018C5.14538 17.4904 4.99622 17.4355 4.87034 17.3435C4.74447 17.2515 4.64694 17.126 4.58883 16.9813C4.53073 16.8366 4.51438 16.6785 4.54165 16.525L5.37498 11.8333L1.94165 8.5C1.83453 8.3931 1.75854 8.25905 1.72184 8.11224C1.68514 7.96543 1.68911 7.81139 1.73332 7.66666C1.78162 7.51856 1.87047 7.38696 1.98978 7.2868C2.10909 7.18663 2.25409 7.12192 2.40832 7.1L7.15832 6.40833L9.24999 2.13333C9.31822 1.99244 9.42477 1.87362 9.55741 1.79047C9.69006 1.70733 9.84344 1.66324 9.99998 1.66324C10.1565 1.66324 10.3099 1.70733 10.4426 1.79047C10.5752 1.87362 10.6817 1.99244 10.75 2.13333L12.8667 6.4L17.6167 7.09166C17.7709 7.11359 17.9159 7.1783 18.0352 7.27846C18.1545 7.37863 18.2434 7.51023 18.2917 7.65833C18.3359 7.80306 18.3398 7.9571 18.3031 8.10391C18.2664 8.25072 18.1904 8.38477 18.0833 8.49166L14.65 11.825L15.4833 16.5167C15.5131 16.6729 15.4975 16.8344 15.4384 16.982C15.3794 17.1297 15.2793 17.2574 15.15 17.35C14.9991 17.4557 14.8174 17.5085 14.6333 17.5Z"
        fill="#FCC419" />
</svg>